<svg width="392" height="444" viewBox="0 0 392 444" fill="none" xmlns="http://www.w3.org/2000/svg">
<path d="M11.931 138.086C11.931 138.086 -15.946 210.074 23.228 282.589C62.402 355.105 143.107 393.391 207.697 426.137C272.287 458.883 339.358 442.936 371.231 389.299C403.104 335.662 359.386 297.371 359.334 220.881C359.283 144.391 370.781 124.139 329.371 59.5169C287.961 -5.10606 186.312 -19.4081 109.471 28.5209C32.631 76.4499 11.931 138.086 11.931 138.086Z" fill="#161815"/>
<path d="M56.599 62.4491C60.792 59.5481 65.206 56.9661 69.828 54.7541C103.151 38.8141 144.053 44.0621 176.079 62.4691C208.105 80.8761 232.07 110.967 249.511 143.529C257.48 158.406 264.605 174.392 277.406 185.391C293.912 199.574 316.204 202.775 335.873 210.499C407.393 238.585 408.209 341.56 345.522 380.011C320.811 395.168 290.293 399.741 261.897 401.858C222.563 404.791 182.511 403.288 144.525 392.668C106.539 382.048 70.598 361.843 45.184 331.678C11.9 292.171 -0.927992 238.458 0.750008 186.827C1.59901 160.698 5.99201 134.35 17.044 110.658C25.93 91.6111 39.402 74.3471 56.599 62.4491Z" fill="#161815"/>
<path d="M56.599 62.4491C60.792 59.5481 65.206 56.9661 69.828 54.7541C103.151 38.8141 144.053 44.0621 176.079 62.4691C208.105 80.8761 232.07 110.967 249.511 143.529C257.48 158.406 264.605 174.392 277.406 185.391C293.912 199.574 316.204 202.775 335.873 210.499C407.393 238.585 408.209 341.56 345.522 380.011C320.811 395.168 290.293 399.741 261.897 401.858C222.563 404.791 182.511 403.288 144.525 392.668C106.539 382.048 70.598 361.843 45.184 331.678C11.9 292.171 -0.927992 238.458 0.750008 186.827C1.59901 160.698 5.99201 134.35 17.044 110.658C25.93 91.6111 39.402 74.3471 56.599 62.4491Z" fill="#161815"/>
</svg>
