<svg width="352" height="229" viewBox="0 0 352 229" fill="none" xmlns="http://www.w3.org/2000/svg">
<path d="M91.364 35.9149C91.706 34.4289 91.892 32.885 91.892 31.296C91.892 19.957 82.7 10.764 71.36 10.764C69.506 10.764 67.71 11.014 66.002 11.475C62.621 5.49195 56.206 1.44995 48.844 1.44995C38.381 1.44995 29.827 9.60896 29.188 19.911C28.222 19.73 27.228 19.625 26.209 19.625C17.932 19.625 11.122 25.872 10.217 33.907C5.357 34.012 1.448 37.977 1.448 42.862C1.448 47.813 5.46199 51.827 10.413 51.827H85.7C90.651 51.827 94.665 47.813 94.665 42.862C94.665 40.06 93.378 37.5589 91.364 35.9149Z" stroke="white" stroke-miterlimit="10" stroke-linecap="round" stroke-linejoin="round"/>
<path d="M36.595 67.061V87.808" stroke="white" stroke-miterlimit="10" stroke-linecap="round" stroke-linejoin="round"/>
<path d="M36.595 54.613V62.911" stroke="white" stroke-miterlimit="10" stroke-linecap="round" stroke-linejoin="round"/>
<path d="M36.595 46.8569V51.2959" stroke="white" stroke-miterlimit="10" stroke-linecap="round" stroke-linejoin="round"/>
<path d="M32.677 85.3828L36.595 90.2328L40.513 85.3828" stroke="white" stroke-miterlimit="10" stroke-linecap="round" stroke-linejoin="round"/>
<path d="M49.967 75.9502V96.6972" stroke="white" stroke-miterlimit="10" stroke-linecap="round" stroke-linejoin="round"/>
<path d="M49.967 63.502V71.8" stroke="white" stroke-miterlimit="10" stroke-linecap="round" stroke-linejoin="round"/>
<path d="M49.967 55.7471V60.1861" stroke="white" stroke-miterlimit="10" stroke-linecap="round" stroke-linejoin="round"/>
<path d="M46.049 94.272L49.967 99.122L53.885 94.272" stroke="white" stroke-miterlimit="10" stroke-linecap="round" stroke-linejoin="round"/>
<path d="M62.461 58.5107V79.2577" stroke="white" stroke-miterlimit="10" stroke-linecap="round" stroke-linejoin="round"/>
<path d="M62.461 46.063V54.362" stroke="white" stroke-miterlimit="10" stroke-linecap="round" stroke-linejoin="round"/>
<path d="M62.461 38.3079V42.7469" stroke="white" stroke-miterlimit="10" stroke-linecap="round" stroke-linejoin="round"/>
<path d="M58.543 76.8328L62.462 81.6828L66.38 76.8328" stroke="white" stroke-miterlimit="10" stroke-linecap="round" stroke-linejoin="round"/>
<path d="M261.125 176.09C260.783 174.604 260.597 173.06 260.597 171.47C260.597 160.131 269.789 150.938 281.128 150.938C282.983 150.938 284.778 151.188 286.487 151.649C289.868 145.666 296.283 141.624 303.645 141.624C314.108 141.624 322.662 149.783 323.301 160.085C324.267 159.904 325.261 159.799 326.28 159.799C334.557 159.799 341.367 166.046 342.272 174.081C347.132 174.186 351.041 178.151 351.041 183.036C351.041 187.987 347.027 192.001 342.076 192.001H266.789C261.838 192.001 257.824 187.987 257.824 183.036C257.823 180.235 259.111 177.734 261.125 176.09Z" stroke="#6DE754" stroke-miterlimit="10" stroke-linecap="round" stroke-linejoin="round"/>
<path d="M312.69 199.631V178.884" stroke="#6DE754" stroke-miterlimit="10" stroke-linecap="round" stroke-linejoin="round"/>
<path d="M312.69 212.079V203.781" stroke="#6DE754" stroke-miterlimit="10" stroke-linecap="round" stroke-linejoin="round"/>
<path d="M312.69 219.834V215.395" stroke="#6DE754" stroke-miterlimit="10" stroke-linecap="round" stroke-linejoin="round"/>
<path d="M316.608 181.309L312.69 176.459L308.772 181.309" stroke="#6DE754" stroke-miterlimit="10" stroke-linecap="round" stroke-linejoin="round"/>
<path d="M299.318 190.742V169.995" stroke="#6DE754" stroke-miterlimit="10" stroke-linecap="round" stroke-linejoin="round"/>
<path d="M299.318 203.19V194.892" stroke="#6DE754" stroke-miterlimit="10" stroke-linecap="round" stroke-linejoin="round"/>
<path d="M299.318 210.945V206.506" stroke="#6DE754" stroke-miterlimit="10" stroke-linecap="round" stroke-linejoin="round"/>
<path d="M303.236 172.42L299.318 167.57L295.4 172.42" stroke="#6DE754" stroke-miterlimit="10" stroke-linecap="round" stroke-linejoin="round"/>
<path d="M286.824 208.181V187.434" stroke="#6DE754" stroke-miterlimit="10" stroke-linecap="round" stroke-linejoin="round"/>
<path d="M286.824 220.629V212.33" stroke="#6DE754" stroke-miterlimit="10" stroke-linecap="round" stroke-linejoin="round"/>
<path d="M286.824 228.384V223.945" stroke="#6DE754" stroke-miterlimit="10" stroke-linecap="round" stroke-linejoin="round"/>
<path d="M290.742 189.859L286.824 185.009L282.906 189.859" stroke="#6DE754" stroke-miterlimit="10" stroke-linecap="round" stroke-linejoin="round"/>
</svg>
