<svg width="61" height="115" viewBox="0 0 61 115" fill="none" xmlns="http://www.w3.org/2000/svg">
<path d="M0.789001 52.9951C0.789001 52.9951 18.027 54.3551 18.746 67.0741C18.746 67.0741 1.29 75.1111 0.789001 52.9951Z" fill="#6DE754" stroke="white" stroke-miterlimit="10" stroke-linecap="round" stroke-linejoin="round"/>
<path d="M34.889 56.153C34.889 56.153 44.519 43.133 60.08 49.81C60.08 49.81 50.578 65.551 34.889 56.153Z" fill="#6DE754" stroke="white" stroke-miterlimit="10" stroke-linecap="round" stroke-linejoin="round"/>
<path d="M58.761 15.046C58.761 15.046 61.53 40.095 38.73 33.197C38.73 33.197 45.97 14.782 58.761 15.046Z" fill="#6DE754" stroke="white" stroke-miterlimit="10" stroke-linecap="round" stroke-linejoin="round"/>
<path d="M30.767 1.10205C30.767 1.10205 48.799 10.8261 35.541 25.5811C35.541 25.5811 22.894 15.0431 30.767 1.10205Z" fill="#6DE754" stroke="white" stroke-miterlimit="10" stroke-linecap="round" stroke-linejoin="round"/>
<path d="M8.57898 23.485C8.57898 23.485 28.185 21.507 28.185 39.656C28.185 39.656 8.57898 40.428 8.57898 23.485Z" fill="#6DE754" stroke="white" stroke-miterlimit="10" stroke-linecap="round" stroke-linejoin="round"/>
<path d="M27.068 92.98C27.068 92.98 18.129 74.222 26.709 55.118C35.289 36.013 38.19 19.926 33.707 8.58496" stroke="white" stroke-miterlimit="10" stroke-linecap="round" stroke-linejoin="round"/>
<path d="M15.02 28.364C15.02 28.364 26.772 33.033 30.766 45.138" stroke="white" stroke-miterlimit="10" stroke-linecap="round" stroke-linejoin="round"/>
<path d="M52.564 25.0681C52.564 25.0681 45.773 34.3191 34.267 33.3201" stroke="white" stroke-miterlimit="10" stroke-linecap="round" stroke-linejoin="round"/>
<path d="M52.564 52.4712C52.564 52.4712 33.755 57.8902 26.28 56.1162" stroke="white" stroke-miterlimit="10" stroke-linecap="round" stroke-linejoin="round"/>
<path d="M6.41003 58.7231C6.41003 58.7231 14.817 67.9512 23.273 67.8062" stroke="white" stroke-miterlimit="10" stroke-linecap="round" stroke-linejoin="round"/>
<path d="M5.46399 78.1172H44.933L40.799 114.195H9.59799L5.46399 78.1172Z" fill="#6DE754"/>
<path d="M45.635 82.4091H4.76196C4.21296 82.4091 3.76697 81.9641 3.76697 81.4141V78.3151C3.76697 77.7661 4.21196 77.3201 4.76196 77.3201H45.635C46.184 77.3201 46.63 77.7651 46.63 78.3151V81.4141C46.629 81.9641 46.184 82.4091 45.635 82.4091Z" fill="#6DE754"/>
<path d="M8.57898 82.4092H32.352" stroke="white" stroke-miterlimit="10" stroke-linecap="round" stroke-linejoin="round"/>
<path d="M36.835 82.4092H40.407" stroke="white" stroke-miterlimit="10" stroke-linecap="round" stroke-linejoin="round"/>
</svg>
