<svg width="500" height="500" viewBox="0 0 500 500" fill="none" xmlns="http://www.w3.org/2000/svg">
<path d="M459.914 95.7729C458.33 93.0859 456.668 90.4499 454.927 87.8699C431.744 53.5239 391.856 30.0319 352.615 19.4119C335.431 14.7609 317.685 12.3229 299.904 11.7199C183.289 7.76693 136.841 99.6749 98.299 123.394C59.757 147.113 0.461994 187.63 4.41499 272.62C8.36799 357.61 69.64 437.659 188.231 442.6C306.822 447.541 314.728 394.176 380.941 374.41C424.76 361.33 455.893 317.15 471.138 276.322C491.913 220.681 490.934 148.407 459.914 95.7729Z" fill="#92E3A9"/>
<path d="M459.914 95.7729C458.33 93.0859 456.668 90.4499 454.927 87.8699C431.744 53.5239 391.856 30.0319 352.615 19.4119C335.431 14.7609 317.685 12.3229 299.904 11.7199C183.289 7.76693 136.841 99.6749 98.299 123.394C59.757 147.113 0.461994 187.63 4.41499 272.62C8.36799 357.61 69.64 437.659 188.231 442.6C306.822 447.541 314.728 394.176 380.941 374.41C424.76 361.33 455.893 317.15 471.138 276.322C491.913 220.681 490.934 148.407 459.914 95.7729Z" fill="#161815"/>
<path d="M66.701 330.067C66.701 330.067 64.18 336.999 58.824 337.944C53.468 338.889 44.016 328.492 50.002 323.136C55.989 317.779 64.18 326.286 66.701 330.067Z" fill="#6DE754" stroke="#263238" stroke-miterlimit="10" stroke-linecap="round" stroke-linejoin="round"/>
<path d="M74.893 296.039C74.893 296.039 67.016 315.258 70.167 324.71C73.318 334.162 92.852 341.094 98.523 328.806C104.194 316.518 91.591 299.189 86.865 295.408C82.14 291.628 76.468 292.888 74.893 296.039Z" fill="#6DE754" stroke="#263238" stroke-miterlimit="10" stroke-linecap="round" stroke-linejoin="round"/>
<path d="M120.893 304.231C120.893 304.231 107.345 316.519 105.77 328.807C104.195 341.095 113.332 345.506 122.784 343.931C132.236 342.355 136.962 318.41 134.127 307.383C131.291 296.354 120.893 304.231 120.893 304.231Z" fill="#6DE754" stroke="#263238" stroke-miterlimit="10" stroke-linecap="round" stroke-linejoin="round"/>
<path d="M123.414 372.286C123.414 372.286 108.291 372.916 107.661 380.163C107.031 387.41 114.277 388.985 121.524 382.684C128.77 376.383 129.715 372.602 123.414 372.286Z" fill="#6DE754" stroke="#263238" stroke-miterlimit="10" stroke-linecap="round" stroke-linejoin="round"/>
<path d="M85.92 387.41C85.92 387.41 84.345 394.972 78.673 397.807C73.002 400.643 62.919 394.656 68.276 385.519C73.632 376.383 83.085 383.629 85.92 387.41Z" fill="#6DE754" stroke="#263238" stroke-miterlimit="10" stroke-linecap="round" stroke-linejoin="round"/>
<path d="M72.687 363.78C72.687 363.78 69.851 357.479 58.824 361.574C47.796 365.67 43.385 371.971 50.317 374.177C57.249 376.383 72.687 363.78 72.687 363.78Z" fill="#6DE754" stroke="#263238" stroke-miterlimit="10" stroke-linecap="round" stroke-linejoin="round"/>
<path d="M104.195 288.162C104.195 288.162 106.085 292.573 109.866 291.628C113.647 290.683 114.592 285.012 120.579 286.587C126.565 288.162 131.606 295.094 131.606 291.943C131.606 288.792 124.044 280.6 115.537 280.6C107.03 280.6 104.51 284.066 104.195 288.162Z" fill="#6DE754" stroke="#263238" stroke-miterlimit="10" stroke-linecap="round" stroke-linejoin="round"/>
<path d="M88.608 335.752C88.608 335.752 95.199 355.055 96.612 371.532C98.024 388.01 96.612 414.375 96.612 414.375" stroke="white" stroke-miterlimit="10" stroke-linecap="round" stroke-linejoin="round"/>
<path d="M111.677 342.343C111.677 342.343 104.144 364.471 102.261 378.594C100.378 392.718 99.907 414.375 99.907 414.375" stroke="white" stroke-miterlimit="10" stroke-linecap="round" stroke-linejoin="round"/>
<path d="M107.911 381.89C107.911 381.89 104.615 382.832 102.732 414.846" stroke="white" stroke-miterlimit="10" stroke-linecap="round" stroke-linejoin="round"/>
<path d="M85.92 387.41C85.92 387.41 89.079 384.715 90.962 390.835C92.845 396.955 91.904 413.904 91.904 413.904" stroke="white" stroke-miterlimit="10" stroke-linecap="round" stroke-linejoin="round"/>
<path d="M94.067 384.377C96.53 398.178 94.258 413.434 94.258 413.434" stroke="white" stroke-miterlimit="10" stroke-linecap="round" stroke-linejoin="round"/>
<path d="M72.687 363.78C72.687 363.78 86.254 361.176 91.903 376.241C92.457 377.719 92.925 379.265 93.319 380.852" stroke="white" stroke-miterlimit="10" stroke-linecap="round" stroke-linejoin="round"/>
<path d="M129.307 349.185C129.307 349.185 132.143 342.884 143.17 346.979C154.197 351.075 158.608 357.376 151.677 359.582C144.746 361.788 129.307 349.185 129.307 349.185Z" fill="#6DE754" stroke="#263238" stroke-miterlimit="10" stroke-linecap="round" stroke-linejoin="round"/>
<path d="M117.247 351.944C114.52 353.81 111.9 356.822 110.091 361.646C104.442 376.711 105.086 413.904 105.086 413.904" stroke="white" stroke-miterlimit="10" stroke-linecap="round" stroke-linejoin="round"/>
<path d="M129.307 349.185C129.307 349.185 124.81 348.322 119.916 350.464" stroke="white" stroke-miterlimit="10" stroke-linecap="round" stroke-linejoin="round"/>
<path d="M81.559 339.678C84.502 343.134 87.356 347.806 89.55 354.113C97.083 375.77 99.907 403.547 98.495 413.904" stroke="white" stroke-miterlimit="10" stroke-linecap="round" stroke-linejoin="round"/>
<path d="M66.701 330.067C66.701 330.067 73.27 331.092 79.92 337.882" stroke="white" stroke-miterlimit="10" stroke-linecap="round" stroke-linejoin="round"/>
<path d="M100.69 359.946C100.231 387.278 99.907 414.376 99.907 414.376" stroke="white" stroke-miterlimit="10" stroke-linecap="round" stroke-linejoin="round"/>
<path d="M104.195 288.162C104.195 288.162 102.732 286.789 101.791 311.27C101.425 320.783 101.059 338.471 100.749 356.544" stroke="white" stroke-miterlimit="10" stroke-linecap="round" stroke-linejoin="round"/>
<path d="M114.988 462.396H84.355C82.254 462.396 80.496 460.801 80.293 458.71L75.896 413.434H123.446L119.049 458.71C118.847 460.801 117.089 462.396 114.988 462.396Z" fill="#161815" stroke="#6DE754" stroke-miterlimit="10" stroke-linecap="round" stroke-linejoin="round"/>
<path d="M77.314 428.028L77.817 433.207H121.527L122.029 428.028H77.314Z" fill="white" stroke="#6DE754" stroke-miterlimit="10" stroke-linecap="round" stroke-linejoin="round"/>
<path d="M120.429 444.506L120.704 441.681H78.64L78.914 444.506H120.429Z" fill="white" stroke="#6DE754" stroke-miterlimit="10" stroke-linecap="round" stroke-linejoin="round"/>
<path d="M290.98 321.646H280.266V343.716H290.98V321.646Z" fill="#6DE754" stroke="white" stroke-miterlimit="10" stroke-linecap="round" stroke-linejoin="round"/>
<path d="M305.641 316.917H294.927V343.716H305.641V316.917Z" stroke="white" stroke-miterlimit="10" stroke-linecap="round" stroke-linejoin="round"/>
<path d="M320.303 304.831H309.589V343.716H320.303V304.831Z" fill="#6DE754" stroke="white" stroke-miterlimit="10" stroke-linecap="round" stroke-linejoin="round"/>
<path d="M334.965 297.474H324.251V343.715H334.965V297.474Z" stroke="white" stroke-miterlimit="10" stroke-linecap="round" stroke-linejoin="round"/>
<path d="M280.04 281.298H311.794" stroke="white" stroke-miterlimit="10" stroke-linecap="round" stroke-linejoin="round"/>
<path d="M280.04 288.269H311.794" stroke="white" stroke-miterlimit="10" stroke-linecap="round" stroke-linejoin="round"/>
<path d="M280.04 295.239H311.794" stroke="white" stroke-miterlimit="10" stroke-linecap="round" stroke-linejoin="round"/>
<path d="M213.031 307.061H167.354C166.108 307.061 165.098 306.051 165.098 304.805C165.098 303.559 166.108 302.549 167.354 302.549H213.031C214.277 302.549 215.287 303.559 215.287 304.805C215.287 306.051 214.277 307.061 213.031 307.061Z" stroke="white" stroke-miterlimit="10" stroke-linecap="round" stroke-linejoin="round"/>
<path d="M197.221 302.55H167.354C166.108 302.55 165.098 303.56 165.098 304.806C165.098 306.052 166.108 307.062 167.354 307.062H197.221V302.55Z" fill="#6DE754" stroke="white" stroke-miterlimit="10" stroke-linecap="round" stroke-linejoin="round"/>
<path d="M213.031 318.903H167.354C166.108 318.903 165.098 317.893 165.098 316.647C165.098 315.401 166.108 314.391 167.354 314.391H213.031C214.277 314.391 215.287 315.401 215.287 316.647C215.287 317.893 214.277 318.903 213.031 318.903Z" stroke="white" stroke-miterlimit="10" stroke-linecap="round" stroke-linejoin="round"/>
<path d="M208.688 314.392H167.354C166.108 314.392 165.098 315.402 165.098 316.648C165.098 317.894 166.108 318.904 167.354 318.904H208.688V314.392Z" fill="#6DE754" stroke="white" stroke-miterlimit="10" stroke-linecap="round" stroke-linejoin="round"/>
<path d="M213.031 330.745H167.354C166.108 330.745 165.098 329.735 165.098 328.489C165.098 327.243 166.108 326.233 167.354 326.233H213.031C214.277 326.233 215.287 327.243 215.287 328.489C215.287 329.735 214.277 330.745 213.031 330.745Z" stroke="white" stroke-miterlimit="10" stroke-linecap="round" stroke-linejoin="round"/>
<path d="M176.836 326.234H167.354C166.108 326.234 165.098 327.244 165.098 328.49C165.098 329.736 166.108 330.746 167.354 330.746H176.836V326.234Z" fill="#6DE754" stroke="white" stroke-miterlimit="10" stroke-linecap="round" stroke-linejoin="round"/>
<path d="M213.031 342.587H167.354C166.108 342.587 165.098 341.577 165.098 340.331C165.098 339.085 166.108 338.075 167.354 338.075H213.031C214.277 338.075 215.287 339.085 215.287 340.331C215.287 341.578 214.277 342.587 213.031 342.587Z" stroke="white" stroke-miterlimit="10" stroke-linecap="round" stroke-linejoin="round"/>
<path d="M212.191 338.076H167.354C166.108 338.076 165.098 339.086 165.098 340.332C165.098 341.578 166.108 342.588 167.354 342.588H212.191V338.076Z" fill="#6DE754" stroke="white" stroke-miterlimit="10" stroke-linecap="round" stroke-linejoin="round"/>
<path d="M174.251 281.298H206.005" stroke="white" stroke-miterlimit="10" stroke-linecap="round" stroke-linejoin="round"/>
<path d="M174.251 288.269H206.005" stroke="white" stroke-miterlimit="10" stroke-linecap="round" stroke-linejoin="round"/>
<path d="M174.251 295.239H206.005" stroke="white" stroke-miterlimit="10" stroke-linecap="round" stroke-linejoin="round"/>
<path d="M391.439 90.714C391.439 88.265 389.454 86.28 387.005 86.28C384.556 86.28 382.571 88.265 382.571 90.714C382.571 93.163 384.556 95.148 387.005 95.148C389.454 95.148 391.439 93.163 391.439 90.714Z" stroke="white" stroke-miterlimit="10" stroke-linecap="round" stroke-linejoin="round"/>
<path d="M406.403 90.714C406.403 88.265 404.418 86.28 401.969 86.28C399.52 86.28 397.535 88.265 397.535 90.714C397.535 93.163 399.52 95.148 401.969 95.148C404.418 95.148 406.403 93.163 406.403 90.714Z" fill="#6DE754" stroke="#263238" stroke-miterlimit="10" stroke-linecap="round" stroke-linejoin="round"/>
<path d="M391.439 104.569C391.439 102.12 389.454 100.135 387.005 100.135C384.556 100.135 382.571 102.12 382.571 104.569C382.571 107.018 384.556 109.003 387.005 109.003C389.454 109.003 391.439 107.018 391.439 104.569Z" stroke="white" stroke-miterlimit="10" stroke-linecap="round" stroke-linejoin="round"/>
<path d="M406.403 104.569C406.403 102.12 404.418 100.135 401.969 100.135C399.52 100.135 397.535 102.12 397.535 104.569C397.535 107.018 399.52 109.003 401.969 109.003C404.418 109.003 406.403 107.018 406.403 104.569Z" stroke="white" stroke-miterlimit="10" stroke-linecap="round" stroke-linejoin="round"/>
<path d="M391.439 118.424C391.439 115.975 389.454 113.99 387.005 113.99C384.556 113.99 382.571 115.975 382.571 118.424C382.571 120.873 384.556 122.858 387.005 122.858C389.454 122.858 391.439 120.873 391.439 118.424Z" fill="white" stroke="#263238" stroke-miterlimit="10" stroke-linecap="round" stroke-linejoin="round"/>
<path d="M406.403 118.424C406.403 115.975 404.418 113.99 401.969 113.99C399.52 113.99 397.535 115.975 397.535 118.424C397.535 120.873 399.52 122.858 401.969 122.858C404.418 122.858 406.403 120.873 406.403 118.424Z" stroke="white" stroke-miterlimit="10" stroke-linecap="round" stroke-linejoin="round"/>
<path d="M240.653 309.909C243.102 309.909 245.087 307.924 245.087 305.475C245.087 303.026 243.102 301.041 240.653 301.041C238.204 301.041 236.219 303.026 236.219 305.475C236.219 307.924 238.204 309.909 240.653 309.909Z" stroke="white" stroke-miterlimit="10" stroke-linecap="round" stroke-linejoin="round"/>
<path d="M255.617 309.909C258.066 309.909 260.051 307.924 260.051 305.475C260.051 303.026 258.066 301.041 255.617 301.041C253.168 301.041 251.183 303.026 251.183 305.475C251.183 307.924 253.168 309.909 255.617 309.909Z" stroke="white" stroke-miterlimit="10" stroke-linecap="round" stroke-linejoin="round"/>
<path d="M240.653 323.765C243.102 323.765 245.087 321.78 245.087 319.331C245.087 316.882 243.102 314.897 240.653 314.897C238.204 314.897 236.219 316.882 236.219 319.331C236.219 321.78 238.204 323.765 240.653 323.765Z" fill="#6DE754" stroke="white" stroke-miterlimit="10" stroke-linecap="round" stroke-linejoin="round"/>
<path d="M255.617 323.765C258.066 323.765 260.051 321.78 260.051 319.331C260.051 316.882 258.066 314.897 255.617 314.897C253.168 314.897 251.183 316.882 251.183 319.331C251.183 321.78 253.168 323.765 255.617 323.765Z" fill="#6DE754" stroke="white" stroke-miterlimit="10" stroke-linecap="round" stroke-linejoin="round"/>
<path d="M245.087 333.186C245.087 330.737 243.102 328.752 240.653 328.752C238.204 328.752 236.219 330.737 236.219 333.186C236.219 335.635 238.204 337.62 240.653 337.62C243.102 337.619 245.087 335.634 245.087 333.186Z" stroke="white" stroke-miterlimit="10" stroke-linecap="round" stroke-linejoin="round"/>
<path d="M260.051 333.186C260.051 330.737 258.066 328.752 255.617 328.752C253.168 328.752 251.183 330.737 251.183 333.186C251.183 335.635 253.168 337.62 255.617 337.62C258.066 337.619 260.051 335.634 260.051 333.186Z" fill="white" stroke="white" stroke-miterlimit="10" stroke-linecap="round" stroke-linejoin="round"/>
<path d="M140.365 85.8559V75.4039L129.927 74.2429C129.354 72.0349 128.483 69.9489 127.368 68.0219L133.961 59.7789L126.57 52.3879L118.363 58.9519C116.444 57.8229 114.363 56.9409 112.16 56.3529L110.994 45.8669H100.542L99.381 56.3049C97.173 56.8769 95.087 57.7489 93.16 58.8639L84.917 52.2709L77.526 59.6619L84.09 67.8689C82.961 69.7879 82.079 71.8699 81.491 74.0719L71.007 75.2399V85.6919L81.445 86.8529C82.018 89.0609 82.889 91.1469 84.004 93.0739L77.411 101.317L84.802 108.708L93.009 102.144C94.928 103.273 97.01 104.155 99.212 104.743L100.378 115.229H110.83L111.991 104.791C114.199 104.218 116.284 103.347 118.211 102.232L126.454 108.825L133.845 101.434L127.281 93.2269C128.41 91.3079 129.292 89.2259 129.88 87.0239L140.365 85.8559ZM105.686 93.0219C98.797 93.0219 93.212 87.4369 93.212 80.5479C93.212 73.6589 98.797 68.0739 105.686 68.0739C112.575 68.0739 118.16 73.6589 118.16 80.5479C118.16 87.4369 112.575 93.0219 105.686 93.0219Z" stroke="#161815" stroke-miterlimit="10" stroke-linecap="round" stroke-linejoin="round"/>
<path d="M181.439 64.876L180.281 57.956L173.242 58.344C172.618 56.946 171.81 55.661 170.858 54.509L174.309 48.321L168.597 44.247L163.891 49.502C162.495 48.967 161.02 48.614 159.496 48.469L157.562 41.656L150.642 42.814L151.03 49.853C149.632 50.477 148.347 51.284 147.195 52.237L141.007 48.786L136.933 54.498L142.188 59.204C141.653 60.6 141.3 62.075 141.155 63.599L134.342 65.533L135.5 72.453L142.539 72.065C143.163 73.463 143.971 74.747 144.923 75.9L141.472 82.088L147.184 86.162L151.89 80.907C153.286 81.442 154.761 81.795 156.285 81.94L158.219 88.753L165.139 87.595L164.751 80.556C166.149 79.932 167.434 79.124 168.586 78.172L174.774 81.623L178.848 75.911L173.593 71.205C174.128 69.809 174.481 68.334 174.626 66.81L181.439 64.876ZM159.273 73.463C154.712 74.226 150.396 71.148 149.632 66.587C148.869 62.026 151.947 57.71 156.508 56.946C161.069 56.183 165.385 59.261 166.148 63.822C166.913 68.383 163.834 72.7 159.273 73.463Z" stroke="#161815" stroke-miterlimit="10" stroke-linecap="round" stroke-linejoin="round"/>
<path d="M379.846 179.589V169.137L369.408 167.976C368.835 165.768 367.964 163.682 366.849 161.756L373.442 153.513L366.051 146.122L357.844 152.686C355.925 151.557 353.844 150.675 351.641 150.087L350.475 139.601H340.023L338.862 150.039C336.654 150.611 334.569 151.483 332.642 152.598L324.399 146.005L317.008 153.396L323.572 161.603C322.443 163.522 321.561 165.604 320.973 167.806L310.487 168.972V179.424L320.925 180.585C321.498 182.793 322.369 184.879 323.484 186.806L316.891 195.049L324.282 202.44L332.489 195.876C334.408 197.005 336.49 197.887 338.692 198.475L339.858 208.961H350.31L351.471 198.523C353.679 197.951 355.765 197.079 357.692 195.964L365.935 202.557L373.326 195.166L366.762 186.959C367.891 185.04 368.773 182.958 369.361 180.756L379.846 179.589ZM345.167 186.755C338.278 186.755 332.693 181.17 332.693 174.281C332.693 167.392 338.278 161.807 345.167 161.807C352.056 161.807 357.641 167.392 357.641 174.281C357.641 181.17 352.056 186.755 345.167 186.755Z" stroke="#6DE754" stroke-miterlimit="10" stroke-linecap="round" stroke-linejoin="round"/>
<path d="M420.919 158.609L419.761 151.689L412.722 152.077C412.098 150.679 411.29 149.394 410.338 148.242L413.789 142.054L408.077 137.98L403.371 143.235C401.975 142.7 400.5 142.347 398.976 142.202L397.042 135.389L390.122 136.547L390.51 143.586C389.112 144.21 387.828 145.018 386.675 145.97L380.487 142.519L376.413 148.231L381.668 152.937C381.133 154.333 380.78 155.808 380.635 157.332L373.822 159.266L374.98 166.186L382.019 165.798C382.643 167.196 383.451 168.48 384.403 169.633L380.951 175.821L386.663 179.895L391.369 174.64C392.765 175.175 394.24 175.528 395.764 175.673L397.698 182.486L404.618 181.328L404.23 174.289C405.628 173.665 406.913 172.857 408.065 171.905L414.253 175.356L418.327 169.644L413.072 164.938C413.607 163.542 413.96 162.067 414.105 160.543L420.919 158.609ZM398.754 167.196C394.193 167.959 389.877 164.881 389.113 160.32C388.35 155.759 391.428 151.443 395.989 150.679C400.55 149.916 404.866 152.994 405.63 157.555C406.394 162.117 403.315 166.433 398.754 167.196Z" stroke="#6DE754" stroke-miterlimit="10" stroke-linecap="round" stroke-linejoin="round"/>
<path d="M357.862 272.077H99.846C95.713 272.077 92.363 268.727 92.363 264.594V80.911C92.363 76.778 95.713 73.428 99.846 73.428H357.861C361.994 73.428 365.344 76.778 365.344 80.911V264.594C365.345 268.727 361.995 272.077 357.862 272.077Z" fill="#1E201D"/>
<path d="M361.79 266.84H103.775C99.642 266.84 96.292 263.49 96.292 259.357V75.6729C96.292 71.5399 99.642 68.1899 103.775 68.1899H361.79C365.923 68.1899 369.273 71.5399 369.273 75.6729V259.356C369.273 263.489 365.923 266.84 361.79 266.84Z" fill="white" stroke="#263238" stroke-miterlimit="10" stroke-linecap="round" stroke-linejoin="round"/>
<path d="M343.458 97.963V120.563C343.458 122.133 342.188 123.403 340.618 123.403H304.058C302.488 123.403 301.218 122.133 301.218 120.563V97.963C301.218 96.393 302.488 95.123 304.058 95.123H340.618C342.188 95.123 343.458 96.393 343.458 97.963Z" fill="#263238" stroke="#263238" stroke-miterlimit="10" stroke-linecap="round" stroke-linejoin="round"/>
<path d="M346.071 95.35V117.95C346.071 119.52 344.801 120.79 343.231 120.79H306.671C305.101 120.79 303.831 119.52 303.831 117.95V95.35C303.831 93.78 305.101 92.51 306.671 92.51H343.231C344.801 92.51 346.071 93.78 346.071 95.35Z" fill="white" stroke="#263238" stroke-miterlimit="10" stroke-linecap="round" stroke-linejoin="round"/>
<path d="M346.071 101.94H303.831V109.1H346.071V101.94Z" fill="#263238" stroke="#263238" stroke-miterlimit="10" stroke-linecap="round" stroke-linejoin="round"/>
<path d="M337.397 97.9781C337.397 99.1241 336.469 100.052 335.323 100.052C334.177 100.052 333.249 99.1231 333.249 97.9781C333.249 96.8331 334.178 95.9041 335.323 95.9041C336.468 95.9041 337.397 96.8321 337.397 97.9781Z" fill="white" stroke="#263238" stroke-miterlimit="10" stroke-linecap="round" stroke-linejoin="round"/>
<path d="M341.357 97.9781C341.357 99.1241 340.428 100.052 339.283 100.052C338.138 100.052 337.209 99.1231 337.209 97.9781C337.209 96.8331 338.138 95.9041 339.283 95.9041C340.428 95.9041 341.357 96.8321 341.357 97.9781Z" fill="white" stroke="#263238" stroke-miterlimit="10" stroke-linecap="round" stroke-linejoin="round"/>
<path d="M159.813 96.739H115.692V122.005H159.813V96.739Z" fill="#263238" stroke="#263238" stroke-miterlimit="10" stroke-linecap="round" stroke-linejoin="round"/>
<path d="M162.108 94.0181H117.987V119.284H162.108V94.0181Z" fill="white" stroke="#263238" stroke-miterlimit="10" stroke-linecap="round" stroke-linejoin="round"/>
<path d="M122.002 100.4V112.809C123.401 112.809 124.536 113.943 124.536 115.343C124.536 115.375 124.528 115.404 124.527 115.436H155.569C155.568 115.404 155.56 115.375 155.56 115.343C155.56 113.944 156.694 112.809 158.094 112.809V100.4C156.694 100.4 155.56 99.266 155.56 97.866H124.537C124.536 99.266 123.401 100.4 122.002 100.4ZM140.048 101.183C143.068 101.183 145.516 103.631 145.516 106.651C145.516 109.671 143.068 112.119 140.048 112.119C137.028 112.119 134.58 109.671 134.58 106.651C134.58 103.631 137.028 101.183 140.048 101.183Z" fill="white" stroke="#263238" stroke-miterlimit="10" stroke-linecap="round" stroke-linejoin="round"/>
<path d="M140.185 111.413V110.659C139.569 110.635 139.11 110.434 138.808 110.058C138.505 109.681 138.339 109.146 138.31 108.452L139.458 108.228C139.47 108.509 139.503 108.757 139.557 108.973C139.611 109.188 139.696 109.354 139.813 109.471C139.929 109.588 140.083 109.646 140.275 109.646C140.49 109.646 140.644 109.582 140.737 109.453C140.83 109.325 140.876 109.162 140.876 108.964C140.876 108.647 140.803 108.387 140.656 108.183C140.51 107.98 140.32 107.776 140.087 107.573L139.162 106.765C138.995 106.616 138.849 106.458 138.723 106.294C138.598 106.129 138.499 105.944 138.427 105.738C138.356 105.532 138.32 105.291 138.32 105.016C138.32 104.471 138.475 104.045 138.787 103.737C139.098 103.429 139.516 103.26 140.043 103.23V102.503H140.429V103.221C140.734 103.239 140.986 103.306 141.183 103.423C141.38 103.54 141.538 103.689 141.654 103.872C141.77 104.055 141.857 104.259 141.914 104.487C141.972 104.714 142.006 104.95 142.018 105.195L140.887 105.392C140.875 105.165 140.852 104.96 140.816 104.778C140.78 104.595 140.712 104.452 140.614 104.347C140.515 104.242 140.371 104.196 140.179 104.208C139.975 104.214 139.822 104.28 139.716 104.405C139.612 104.53 139.56 104.689 139.56 104.881C139.56 105.138 139.617 105.346 139.73 105.504C139.844 105.663 139.985 105.819 140.152 105.975L141.067 106.773C141.258 106.947 141.436 107.135 141.601 107.338C141.765 107.542 141.897 107.769 141.996 108.02C142.095 108.271 142.144 108.559 142.144 108.881C142.144 109.204 142.08 109.493 141.951 109.747C141.822 110.001 141.642 110.206 141.408 110.361C141.175 110.517 140.897 110.613 140.574 110.648V111.411H140.185V111.413Z" fill="#263238"/>
<path d="M334.929 144.552V144.045C334.929 142.216 333.446 140.732 331.616 140.732H313.079C311.25 140.732 309.766 142.215 309.766 144.045V144.552V148.198V176.678V179.218V179.725C309.766 181.554 311.249 183.038 313.079 183.038H313.585C313.585 183.038 313.585 183.038 313.586 183.038H331.109H331.616C333.445 183.038 334.929 181.555 334.929 179.725V179.219V144.552Z" fill="#263238" stroke="#263238" stroke-miterlimit="10" stroke-linecap="round" stroke-linejoin="round"/>
<path d="M333.712 179.887H316.189C314.08 179.887 312.369 178.177 312.369 176.067V141.4C312.369 139.291 314.079 137.58 316.189 137.58H333.712C335.821 137.58 337.532 139.29 337.532 141.4V176.067C337.532 178.177 335.822 179.887 333.712 179.887Z" fill="white" stroke="#263238" stroke-miterlimit="10" stroke-linecap="round" stroke-linejoin="round"/>
<path d="M337.532 145.047V140.894C337.532 139.064 336.049 137.581 334.219 137.581H315.682C313.853 137.581 312.369 139.064 312.369 140.894V145.047H337.532Z" fill="white" stroke="#263238" stroke-miterlimit="10" stroke-linecap="round" stroke-linejoin="round"/>
<path d="M312.37 173.527V176.574C312.37 178.403 313.853 179.887 315.683 179.887H334.22C336.049 179.887 337.533 178.404 337.533 176.574V173.527H312.37Z" fill="white" stroke="#263238" stroke-miterlimit="10" stroke-linecap="round" stroke-linejoin="round"/>
<path d="M164.996 177.523V144.568C164.996 143.208 163.893 142.105 162.533 142.105H115.055C113.695 142.105 112.592 143.208 112.592 144.568V177.523H108.617L110.296 179.387C111.714 180.961 113.733 181.86 115.851 181.86H163.111C165.229 181.86 167.248 180.961 168.666 179.387L170.345 177.523H164.996Z" fill="#263238" stroke="#263238" stroke-miterlimit="10" stroke-linecap="round" stroke-linejoin="round"/>
<path d="M166.862 175.283H114.458V142.328C114.458 140.968 115.561 139.865 116.921 139.865H164.399C165.759 139.865 166.862 140.968 166.862 142.328V175.283Z" fill="white" stroke="#263238" stroke-miterlimit="10" stroke-linecap="round" stroke-linejoin="round"/>
<path d="M165.022 176.473H116.298V143.981C116.298 142.621 117.401 141.518 118.761 141.518H162.559C163.919 141.518 165.022 142.621 165.022 143.981V176.473Z" fill="white" stroke="#263238" stroke-miterlimit="10" stroke-linecap="round" stroke-linejoin="round"/>
<path d="M117.717 179.62H164.977C167.095 179.62 169.114 178.721 170.532 177.147L172.211 175.283H110.483L112.162 177.147C113.579 178.721 115.598 179.62 117.717 179.62Z" fill="white" stroke="#263238" stroke-miterlimit="10" stroke-linecap="round" stroke-linejoin="round"/>
<path d="M335.132 206.033H312.52C310.424 206.033 308.724 207.732 308.724 209.829V220.643C308.724 222.739 310.423 224.439 312.52 224.439H333.505L338.928 231.268V220.643V209.829C338.928 207.732 337.228 206.033 335.132 206.033Z" fill="#263238" stroke="#263238" stroke-miterlimit="10" stroke-linecap="round" stroke-linejoin="round"/>
<path d="M336.555 204.183H313.943C311.847 204.183 310.147 205.882 310.147 207.979V218.793C310.147 220.889 311.846 222.589 313.943 222.589H334.928L340.351 229.418V218.793V207.979C340.35 205.883 338.651 204.183 336.555 204.183Z" fill="white" stroke="#263238" stroke-miterlimit="10" stroke-linecap="round" stroke-linejoin="round"/>
<path d="M305.482 218.84H320.447C321.834 218.84 322.959 219.965 322.959 221.352V228.509C322.959 229.896 321.834 231.021 320.447 231.021H306.559L302.97 235.541V228.509V221.352C302.97 219.965 304.095 218.84 305.482 218.84Z" fill="#263238" stroke="#263238" stroke-miterlimit="10" stroke-linecap="round" stroke-linejoin="round"/>
<path d="M306.651 217.458H321.616C323.003 217.458 324.128 218.583 324.128 219.97V227.127C324.128 228.514 323.003 229.639 321.616 229.639H307.728L304.139 234.159V227.127V219.97C304.139 218.583 305.263 217.458 306.651 217.458Z" fill="white" stroke="#263238" stroke-miterlimit="10" stroke-linecap="round" stroke-linejoin="round"/>
<path d="M315.533 209.387H334.734" stroke="#263238" stroke-miterlimit="10" stroke-linecap="round" stroke-linejoin="round"/>
<path d="M315.533 213.417H334.734" stroke="#263238" stroke-miterlimit="10" stroke-linecap="round" stroke-linejoin="round"/>
<path d="M315.533 217.447H334.734" stroke="#263238" stroke-miterlimit="10" stroke-linecap="round" stroke-linejoin="round"/>
<path d="M307.237 222.188H321.637" stroke="#263238" stroke-miterlimit="10" stroke-linecap="round" stroke-linejoin="round"/>
<path d="M307.237 225.506H321.637" stroke="#263238" stroke-miterlimit="10" stroke-linecap="round" stroke-linejoin="round"/>
<path d="M140.283 244.984C152.032 244.984 161.556 235.46 161.556 223.711C161.556 211.962 152.032 202.438 140.283 202.438C128.534 202.438 119.01 211.962 119.01 223.711C119.01 235.46 128.534 244.984 140.283 244.984Z" fill="#263238" stroke="#263238" stroke-miterlimit="10" stroke-linecap="round" stroke-linejoin="round"/>
<path d="M141.266 242.037C153.015 242.037 162.539 232.513 162.539 220.764C162.539 209.015 153.015 199.491 141.266 199.491C129.517 199.491 119.993 209.015 119.993 220.764C119.993 232.513 129.517 242.037 141.266 242.037Z" fill="white" stroke="#263238" stroke-miterlimit="10" stroke-linecap="round" stroke-linejoin="round"/>
<path d="M130.608 207.729C127.172 210.26 127.804 216.095 129.659 219.347C131.807 223.112 135.281 225.955 138.54 228.718C138.891 229.016 139.244 229.312 139.584 229.622C142.028 231.843 145.34 233.593 148.633 234.072C151.79 234.531 153.563 232.355 154.177 229.464C154.304 228.863 154.112 228.24 153.677 227.806L148.779 222.908C148.779 222.908 147.903 222.397 147.246 223.054C146.589 223.711 144.4 225.535 144.4 225.535C144.4 225.535 140.094 224.002 135.497 216.632C135.497 216.632 137.978 213.932 138.197 213.494C138.416 213.056 138.343 212.326 137.905 211.742C137.156 210.744 136.048 209.915 135.135 209.073C133.698 207.748 132.575 206.281 130.608 207.729Z" fill="#263238" stroke="#263238" stroke-miterlimit="10" stroke-linecap="round" stroke-linejoin="round"/>
<path d="M305.872 102.76C310.083 101.762 312.689 97.5395 311.691 93.3282C310.694 89.1169 306.471 86.5117 302.26 87.5092C298.048 88.5068 295.443 92.7294 296.441 96.9406C297.438 101.152 301.661 103.757 305.872 102.76Z" fill="#263238" stroke="#263238" stroke-miterlimit="10" stroke-linecap="round" stroke-linejoin="round"/>
<path d="M304.891 98.6471C304.824 98.6471 304.756 98.6431 304.689 98.6331C304.215 98.5691 303.8 98.2821 303.572 97.8611L301.107 93.3101C300.712 92.5811 300.984 91.6711 301.712 91.2771C302.439 90.8811 303.351 91.1521 303.745 91.8811L305.232 94.6291L313.671 85.8671C314.246 85.2701 315.194 85.2531 315.791 85.8271C316.388 86.4021 316.406 87.3511 315.831 87.9481L305.971 98.1881C305.686 98.4831 305.295 98.6471 304.891 98.6471Z" fill="#6DE754" stroke="#263238" stroke-miterlimit="10" stroke-linecap="round" stroke-linejoin="round"/>
<path d="M163.225 148.195C167.553 148.195 171.061 144.687 171.061 140.359C171.061 136.031 167.553 132.523 163.225 132.523C158.897 132.523 155.389 136.031 155.389 140.359C155.389 144.687 158.897 148.195 163.225 148.195Z" fill="#263238" stroke="#263238" stroke-miterlimit="10" stroke-linecap="round" stroke-linejoin="round"/>
<path d="M164.058 143.884C163.991 143.884 163.923 143.88 163.856 143.87C163.382 143.806 162.967 143.519 162.739 143.098L160.274 138.547C159.879 137.818 160.151 136.908 160.879 136.514C161.606 136.119 162.518 136.389 162.912 137.119L164.399 139.867L172.838 131.105C173.413 130.508 174.361 130.491 174.958 131.065C175.555 131.64 175.573 132.589 174.998 133.186L165.138 143.426C164.854 143.72 164.462 143.884 164.058 143.884Z" fill="#6DE754" stroke="#263238" stroke-miterlimit="10" stroke-linecap="round" stroke-linejoin="round"/>
<path d="M310.633 213.076C314.961 213.076 318.469 209.568 318.469 205.24C318.469 200.912 314.961 197.404 310.633 197.404C306.305 197.404 302.797 200.912 302.797 205.24C302.797 209.568 306.305 213.076 310.633 213.076Z" fill="#263238" stroke="#263238" stroke-miterlimit="10" stroke-linecap="round" stroke-linejoin="round"/>
<path d="M311.466 208.765C311.399 208.765 311.331 208.761 311.264 208.751C310.79 208.686 310.375 208.4 310.147 207.979L307.682 203.428C307.287 202.699 307.559 201.789 308.287 201.395C309.014 200.999 309.926 201.27 310.32 201.999L311.807 204.747L320.245 195.985C320.82 195.388 321.768 195.371 322.365 195.945C322.962 196.52 322.98 197.469 322.405 198.066L312.545 208.306C312.262 208.601 311.87 208.765 311.466 208.765Z" fill="#6DE754" stroke="#263238" stroke-miterlimit="10" stroke-linecap="round" stroke-linejoin="round"/>
<path d="M273.866 211.943L266.404 230.489L263.526 231.86L266.678 247.484L289.904 216.235C289.904 216.235 286.124 207.513 273.866 211.943Z" fill="white" stroke="#263238" stroke-miterlimit="10" stroke-linecap="round" stroke-linejoin="round"/>
<path d="M257.385 266.84L265.282 266.671V245.565H194.726V266.84H257.385Z" fill="#6DE754" stroke="#263238" stroke-miterlimit="10" stroke-linecap="round" stroke-linejoin="round"/>
<path d="M214.006 140.788C214.006 140.788 182.382 152.986 180.801 156.6C179.22 160.214 175.456 205.169 175.456 205.169C175.456 205.169 175.154 214.879 177.187 215.782C179.22 216.686 193.451 212.846 193.451 212.846C193.451 212.846 193.225 249.666 194.58 250.795C195.935 251.925 262.346 250.343 263.702 248.988C265.057 247.633 265.283 244.244 265.283 244.244L267.316 193.645L274.544 205.843C274.544 205.843 271.608 206.069 272.059 207.424C272.511 208.779 273.866 211.942 273.866 211.942C273.866 211.942 281.998 211.264 285.16 212.62C288.322 213.975 289 216.46 289.904 216.234C290.808 216.008 294.874 213.749 296.229 211.265C297.584 208.78 297.358 207.651 296.681 207.199C296.681 207.199 296.907 203.811 296.455 202.23C296.003 200.649 292.389 197.26 290.356 195.905C288.323 194.55 286.742 190.71 286.742 190.71C286.742 190.71 273.641 154.116 271.608 152.535C269.575 150.954 230.496 140.563 230.496 140.563L214.006 140.788Z" fill="#161815" stroke="#161815" stroke-miterlimit="10" stroke-linecap="round" stroke-linejoin="round"/>
<path d="M241.182 100.159C241.182 100.159 242.337 106.222 243.925 111.274C245.513 116.326 243.925 128.884 243.348 132.348C242.771 135.812 238.585 136.39 237.574 136.39C236.564 136.39 236.564 136.39 236.564 136.39C236.564 136.39 236.853 151.979 236.853 153.711C236.853 155.443 236.276 161.217 229.924 163.382C223.573 165.547 215.922 162.66 213.757 157.608C211.592 152.556 209.138 105.932 209.138 105.932C209.138 105.932 208.128 100.303 213.035 96.4051C217.943 92.5081 228.191 92.7961 233.532 93.5181C238.872 94.2401 241.182 100.159 241.182 100.159Z" fill="white" stroke="#263238" stroke-miterlimit="10" stroke-linecap="round" stroke-linejoin="round"/>
<path d="M240.604 115.748C240.604 115.748 243.635 114.738 244.79 113.005C245.945 111.273 241.037 110.118 240.027 109.108C239.017 108.098 238.872 102.179 238.872 102.179H240.748" fill="white"/>
<path d="M240.604 115.748C240.604 115.748 243.635 114.738 244.79 113.005C245.945 111.273 241.037 110.118 240.027 109.108C239.017 108.098 238.872 102.179 238.872 102.179H240.748" stroke="#263238" stroke-miterlimit="10" stroke-linecap="round" stroke-linejoin="round"/>
<path d="M226.603 116.614C226.603 116.614 231.078 121.955 233.965 121.81C236.852 121.666 240.749 120.944 240.749 120.944" stroke="#263238" stroke-miterlimit="10" stroke-linecap="round" stroke-linejoin="round"/>
<path d="M228.335 115.604L224.871 117.336" stroke="#263238" stroke-miterlimit="10" stroke-linecap="round" stroke-linejoin="round"/>
<path d="M227.036 103.045C227.036 103.045 228.191 100.88 232.232 101.457" stroke="#263238" stroke-miterlimit="10" stroke-linecap="round" stroke-linejoin="round"/>
<path d="M231.799 108.242C231.799 109.278 231.347 110.119 230.789 110.119C230.231 110.119 229.779 109.279 229.779 108.242C229.779 107.206 230.231 106.366 230.789 106.366C231.347 106.365 231.799 107.205 231.799 108.242Z" fill="#263238"/>
<path d="M242.047 108.751C242.047 109.787 241.406 109.696 240.848 109.696C240.29 109.696 240.026 109.788 240.026 108.751C240.026 107.715 240.478 106.874 241.036 106.874C241.595 106.874 242.047 107.715 242.047 108.751Z" fill="#263238"/>
<path d="M236.563 136.389C236.563 136.389 231.222 136.389 228.768 135.812C226.314 135.235 219.53 131.337 219.53 131.337C219.53 131.337 224.438 137.255 228.479 139.276C232.521 141.297 236.129 140.719 236.129 140.719L236.563 136.389Z" fill="#263238"/>
<path d="M211.446 114.882C211.446 114.882 215.488 114.16 215.776 113.294C216.065 112.428 212.023 108.386 214.621 106.077C217.219 103.767 221.405 102.468 221.261 101.025C221.117 99.582 215.776 97.849 220.106 95.251C224.436 92.653 236.85 94.385 238.727 96.261C240.603 98.138 241.181 100.88 242.769 99.725C244.357 98.57 248.399 91.497 246.955 89.043C245.512 86.589 242.336 89.476 242.336 89.476C242.336 89.476 240.027 81.826 237.717 84.28C235.407 86.734 235.407 89.043 235.407 89.043C235.407 89.043 220.54 86.733 208.992 91.93C197.444 97.126 206.538 115.747 206.538 115.747L211.446 114.882Z" fill="#6DE754" stroke="#263238" stroke-miterlimit="10" stroke-linecap="round" stroke-linejoin="round"/>
<path d="M213.179 116.758C213.179 116.758 208.704 109.829 206.539 111.417C204.374 113.005 203.941 122.243 206.828 123.109C209.715 123.975 211.736 121.954 211.736 121.954" fill="white"/>
<path d="M213.179 116.758C213.179 116.758 208.704 109.829 206.539 111.417C204.374 113.005 203.941 122.243 206.828 123.109C209.715 123.975 211.736 121.954 211.736 121.954" stroke="#263238" stroke-miterlimit="10" stroke-linecap="round" stroke-linejoin="round"/>
<path d="M243.07 144.143C243.07 144.143 246.191 143.623 247.751 141.542C249.311 139.461 250.698 141.369 249.831 143.969C248.964 146.57 244.11 149.17 244.11 149.17L243.07 144.143Z" fill="white" stroke="#263238" stroke-miterlimit="10" stroke-linecap="round" stroke-linejoin="round"/>
<path d="M239.429 139.288C239.429 139.288 231.281 141.542 230.587 143.969C229.894 146.396 229.922 163.382 229.922 163.382C229.922 163.382 184.47 190.953 181.696 192.34C178.922 193.727 175.801 193.9 173.721 196.328C171.64 198.755 175.455 205.17 175.455 205.17C175.455 205.17 171.988 205.864 173.028 207.944C174.068 210.024 174.935 208.984 174.935 208.984C174.935 208.984 175.033 216.899 175.455 218.693C176.148 221.64 180.7 222.008 182.737 221.294C188.425 219.298 236.482 166.682 236.482 166.682C236.482 166.682 239.256 166.162 239.776 164.081C240.296 162 240.296 161.134 240.296 161.134C240.296 161.134 244.457 161.134 245.15 160.094C245.843 159.054 246.537 156.627 246.71 154.893C246.883 153.159 244.976 146.571 244.976 146.571C244.976 146.571 244.629 143.624 243.069 144.144C241.509 144.664 235.441 147.265 235.441 147.265C235.441 147.265 234.401 145.011 235.614 144.318C236.828 143.625 244.803 143.451 244.109 140.851C243.417 138.248 239.429 139.288 239.429 139.288Z" fill="white" stroke="#263238" stroke-miterlimit="10" stroke-linecap="round" stroke-linejoin="round"/>
<path d="M245.844 150.037C245.844 150.037 245.497 147.09 243.937 147.436C242.377 147.783 236.135 150.557 236.135 150.557" stroke="#263238" stroke-miterlimit="10" stroke-linecap="round" stroke-linejoin="round"/>
<path d="M246.364 153.158C246.364 153.158 246.191 151.251 244.63 151.424C243.07 151.597 236.851 153.71 236.851 153.71" stroke="#263238" stroke-miterlimit="10" stroke-linecap="round" stroke-linejoin="round"/>
<path d="M242.723 156.279L239.429 157.319C239.429 157.319 237.695 160.786 240.296 161.133" stroke="#263238" stroke-miterlimit="10" stroke-linecap="round" stroke-linejoin="round"/>
<path d="M235.442 147.263L232.668 148.824" stroke="#263238" stroke-miterlimit="10" stroke-linecap="round" stroke-linejoin="round"/>
<path d="M188.167 188.564C184.696 190.631 182.273 192.052 181.696 192.34C178.922 193.727 175.801 193.9 173.721 196.328C171.64 198.755 175.455 205.17 175.455 205.17C175.455 205.17 171.988 205.864 173.028 207.944C174.068 210.024 174.935 208.984 174.935 208.984C174.935 208.984 175.033 216.899 175.455 218.693C176.148 221.64 180.7 222.008 182.737 221.294C184.345 220.73 189.343 216.115 195.684 209.789C190.567 204.569 188.784 194.549 188.167 188.564Z" fill="#161815" stroke="#161815" stroke-miterlimit="10" stroke-linecap="round" stroke-linejoin="round"/>
<path d="M267.315 231.821C267.315 231.821 259.409 239.275 259.409 240.631C259.409 241.986 260.99 243.342 261.894 242.438C262.798 241.534 270.704 236.791 270.929 235.21C271.155 233.628 270.026 230.24 267.315 231.821Z" fill="white" stroke="#263238" stroke-miterlimit="10" stroke-linecap="round" stroke-linejoin="round"/>
<path d="M270.241 236.108C270.241 236.108 272.297 237.204 272.434 238.849C272.571 240.494 264.074 247.072 261.607 246.798C259.14 246.524 261.894 242.437 261.894 242.437L270.241 236.108Z" fill="white" stroke="#263238" stroke-miterlimit="10" stroke-linecap="round" stroke-linejoin="round"/>
<path d="M271.749 240.905C271.749 240.905 272.845 243.372 272.16 244.879C271.475 246.387 265.444 248.031 263.526 247.894C261.607 247.757 263.252 246.524 263.252 246.524C263.252 246.524 271.475 241.865 271.749 240.905Z" fill="white" stroke="#263238" stroke-miterlimit="10" stroke-linecap="round" stroke-linejoin="round"/>
<path d="M271.201 246.25C271.201 246.25 271.338 248.443 270.653 249.402C269.968 250.361 266.404 252.28 264.76 251.184C263.115 250.088 268.735 247.072 268.735 247.072L271.201 246.25Z" fill="white" stroke="#263238" stroke-miterlimit="10" stroke-linecap="round" stroke-linejoin="round"/>
</svg>
