<svg width="578" height="437" viewBox="0 0 578 437" fill="none" xmlns="http://www.w3.org/2000/svg">
<g clip-path="url(#clip0_169_9)">
<path d="M555.312 305.687C555.312 305.687 582.684 165.346 508.118 85.7189C442.296 15.4299 338.084 -11.9081 253.139 46.2149C222.872 66.9249 200.842 107.131 165.485 119.559C125.842 133.494 74.872 138.47 38.06 198.19C1.24802 257.91 14.463 334.551 63.545 375.359C112.628 416.168 198.522 376.354 275.921 373.368C353.319 370.383 514.725 478.874 555.312 305.687Z" fill="#6DE754"/>
<path d="M102.88 54.51C102.88 54.51 102.88 45.979 90.937 34.037C78.994 22.094 71.317 15.27 71.317 15.27C71.317 15.27 65.346 34.891 76.435 46.834C87.525 58.777 102.88 69.867 102.88 69.867V54.51Z" fill="white"/>
<path d="M85.547 107.787C85.547 107.787 85.547 99.2559 73.604 87.3129C61.661 75.3699 53.984 68.5459 53.984 68.5459C53.984 68.5459 48.012 88.1669 59.102 100.11C70.192 112.053 85.547 123.142 85.547 123.142V107.787Z" fill="white"/>
<path d="M102.129 69.04C102.129 69.04 103.031 60.557 116.168 49.943C129.306 39.329 137.662 33.354 137.662 33.354C137.662 33.354 141.527 53.496 129.237 64.2C116.947 74.904 100.506 84.31 100.506 84.31L102.129 69.04Z" fill="white"/>
<path d="M81.19 131.958C81.19 131.958 82.978 123.617 97.158 114.441C111.338 105.266 120.275 100.201 120.275 100.201C120.275 100.201 122.003 120.637 108.657 129.991C95.311 139.345 77.973 146.971 77.973 146.971L81.19 131.958Z" fill="white"/>
<path d="M85.126 200.558C85.126 200.558 85.126 192.027 97.069 180.084C109.012 168.141 116.69 161.316 116.69 161.316C116.69 161.316 122.661 180.937 111.571 192.879C100.481 204.822 85.126 215.912 85.126 215.912V200.558Z" fill="#92E3A9"/>
<path d="M84.927 217.301C84.927 217.301 86.139 208.857 76.015 195.338C65.891 181.819 59.26 173.973 59.26 173.973C59.26 173.973 50.561 192.546 59.841 205.944C69.121 219.341 82.744 232.501 82.744 232.501L84.927 217.301Z" fill="white"/>
<path d="M73.151 266.925C73.151 266.925 73.151 258.395 85.094 246.452C97.037 234.509 104.715 227.685 104.715 227.685C104.715 227.685 110.686 247.305 99.597 259.248C88.507 271.191 73.152 282.281 73.152 282.281L73.151 266.925Z" fill="white"/>
<path d="M81.126 311.916C81.126 311.916 78.965 303.664 87.494 289.085C96.022 274.506 101.721 265.96 101.721 265.96C101.721 265.96 112.467 283.429 104.764 297.791C97.061 312.153 85.014 326.771 85.014 326.771L81.126 311.916Z" fill="#92E3A9"/>
<path d="M103.962 52.324C103.263 61.442 102.227 70.876 100.691 78.812C95.97 103.204 84.168 118.941 79.447 140.972C74.726 163.003 88.279 191.386 84.65 219.684C81.02 247.982 70.005 263.719 73.152 282.603C76.299 301.487 92.823 352.631 92.823 352.631" stroke="white" stroke-width="1.2008" stroke-miterlimit="10" stroke-linecap="round" stroke-linejoin="round"/>
<path d="M102.011 74.709L114.882 64.832" stroke="#6DE754" stroke-width="1.2008" stroke-miterlimit="10" stroke-linecap="round" stroke-linejoin="round"/>
<path d="M102.61 63.3361L97.222 53.7581" stroke="#6DE754" stroke-width="1.2008" stroke-miterlimit="10" stroke-linecap="round" stroke-linejoin="round"/>
<path d="M80.161 139.96C80.161 139.96 90.936 131.879 102.011 123.797" stroke="#6DE754" stroke-width="1.2008" stroke-miterlimit="10" stroke-linecap="round" stroke-linejoin="round"/>
<path d="M85.547 123.141C85.547 123.141 76.57 105.538 66.393 93.865" stroke="#6DE754" stroke-width="1.2008" stroke-miterlimit="10" stroke-linecap="round" stroke-linejoin="round"/>
<path d="M85.549 212.693C85.549 212.693 93.93 196.231 108.596 181.863" stroke="#6DE754" stroke-width="1.2008" stroke-miterlimit="10" stroke-linecap="round" stroke-linejoin="round"/>
<path d="M83.454 224.666C83.454 224.666 78.066 211.796 71.781 202.517C65.495 193.238 64.597 192.041 64.597 192.041" stroke="#6DE754" stroke-width="1.2008" stroke-miterlimit="10" stroke-linecap="round" stroke-linejoin="round"/>
<path d="M73.151 282.602C73.151 282.602 77.467 271.658 82.855 262.978C88.242 254.298 95.426 246.516 95.426 246.516" stroke="#6DE754" stroke-width="1.2008" stroke-miterlimit="10" stroke-linecap="round" stroke-linejoin="round"/>
<path d="M85.015 326.77C85.015 326.77 83.753 316.555 88.243 307.875C92.733 299.195 97.821 287.821 99.916 283.331" stroke="#6DE754" stroke-width="1.2008" stroke-miterlimit="10" stroke-linecap="round" stroke-linejoin="round"/>
<path d="M24.673 168.475C24.673 168.475 23.747 163.125 29.94 154.34C36.133 145.554 40.206 140.441 40.206 140.441C40.206 140.441 46.081 152.096 40.423 160.789C34.765 169.482 26.34 178.103 26.34 178.103L24.673 168.475Z" fill="white"/>
<path d="M41.326 200.002C41.326 200.002 40.4 194.652 46.593 185.867C52.785 177.081 56.859 171.968 56.859 171.968C56.859 171.968 62.733 183.624 57.076 192.317C51.418 201.01 42.993 209.632 42.993 209.632L41.326 200.002Z" fill="white"/>
<path d="M26.721 177.505C26.721 177.505 25.235 172.283 15.844 167.054C6.45301 161.824 0.565002 158.984 0.565002 158.984C0.565002 158.984 0.328002 172.034 9.197 177.413C18.066 182.791 29.397 186.904 29.397 186.904L26.721 177.505Z" fill="white"/>
<path d="M46.682 214.687C46.682 214.687 44.655 209.65 34.767 205.436C24.879 201.222 18.725 199.016 18.725 199.016C18.725 199.016 19.86 212.019 29.244 216.436C38.629 220.853 50.329 223.753 50.329 223.753L46.682 214.687Z" fill="white"/>
<path d="M51.66 258.131C51.66 258.131 50.734 252.781 41.948 246.589C33.162 240.396 27.607 236.95 27.607 236.95C27.607 236.95 25.992 249.902 34.243 256.187C42.494 262.472 53.327 267.759 53.327 267.759L51.66 258.131Z" fill="white"/>
<path d="M53.603 268.609C53.603 268.609 51.926 263.445 56.808 253.869C61.689 244.292 64.995 238.652 64.995 238.652C64.995 238.652 72.466 249.354 68.101 258.763C63.736 268.172 56.622 277.903 56.622 277.903L53.603 268.609Z" fill="white"/>
<path d="M68.593 311.759C68.593 311.759 69.212 306.365 77.631 299.681C86.049 292.997 91.398 289.239 91.398 289.239C91.398 289.239 93.749 302.078 85.871 308.824C77.993 315.57 67.479 321.467 67.479 321.467L68.593 311.759Z" fill="white"/>
<path d="M66.375 298.449C66.375 298.449 65.449 293.099 56.663 286.907C47.878 280.714 42.322 277.268 42.322 277.268C42.322 277.268 40.708 290.22 48.958 296.505C57.209 302.79 68.042 308.078 68.042 308.078L66.375 298.449Z" fill="white"/>
<path d="M66.258 327.527C66.258 327.527 66.717 322.117 59.786 313.902C52.855 305.686 48.354 300.945 48.354 300.945C48.354 300.945 43.511 313.065 49.901 321.236C56.291 329.406 65.432 337.265 65.432 337.265L66.258 327.527Z" fill="white"/>
<path d="M23.757 167.222C25.185 172.864 26.859 178.667 28.684 183.477C34.292 198.26 43.402 206.847 48.754 220.15C54.106 233.453 48.689 252.723 54.036 270.074C59.384 287.424 68 296.097 68.076 308.281C68.152 320.464 63.343 354.33 63.343 354.33" stroke="white" stroke-width="1.2008" stroke-miterlimit="10" stroke-linecap="round" stroke-linejoin="round"/>
<path d="M27.41 181.047L18.268 176.25" stroke="#6DE754" stroke-width="1.2008" stroke-miterlimit="10" stroke-linecap="round" stroke-linejoin="round"/>
<path d="M25.8 173.98L28.139 167.389" stroke="#6DE754" stroke-width="1.2008" stroke-miterlimit="10" stroke-linecap="round" stroke-linejoin="round"/>
<path d="M48.196 219.593C48.196 219.593 40.562 215.695 32.74 211.829" stroke="#6DE754" stroke-width="1.2008" stroke-miterlimit="10" stroke-linecap="round" stroke-linejoin="round"/>
<path d="M42.993 209.631C42.993 209.631 46.712 197.618 51.826 189.193" stroke="#6DE754" stroke-width="1.2008" stroke-miterlimit="10" stroke-linecap="round" stroke-linejoin="round"/>
<path d="M52.713 265.787C52.713 265.787 45.67 256.374 34.913 248.956" stroke="#6DE754" stroke-width="1.2008" stroke-miterlimit="10" stroke-linecap="round" stroke-linejoin="round"/>
<path d="M55.327 273.068C55.327 273.068 57.308 264.412 60.242 257.911C63.177 251.41 63.61 250.562 63.61 250.562" stroke="#6DE754" stroke-width="1.2008" stroke-miterlimit="10" stroke-linecap="round" stroke-linejoin="round"/>
<path d="M67.662 317.522C67.662 317.522 73.722 310.093 77.494 307.315C81.266 304.535 83.879 301.763 83.879 301.763" stroke="#6DE754" stroke-width="1.2008" stroke-miterlimit="10" stroke-linecap="round" stroke-linejoin="round"/>
<path d="M68.077 308.28C68.077 308.28 64.182 301.886 59.861 297.027C55.54 292.169 50.191 288.068 50.191 288.068" stroke="#6DE754" stroke-width="1.2008" stroke-miterlimit="10" stroke-linecap="round" stroke-linejoin="round"/>
<path d="M65.432 337.264C65.432 337.264 65.114 330.721 61.356 325.766C57.598 320.81 53.173 314.23 51.371 311.642" stroke="#6DE754" stroke-width="1.2008" stroke-miterlimit="10" stroke-linecap="round" stroke-linejoin="round"/>
<path d="M100.563 435.535H50.717C48.549 435.535 46.791 433.777 46.791 431.609L34.427 349.058H116.853L104.489 431.609C104.489 433.778 102.731 435.535 100.563 435.535Z" fill="white" stroke="#263238" stroke-width="1.2008" stroke-miterlimit="10" stroke-linecap="round" stroke-linejoin="round"/>
<path d="M374.929 35.1085L363.042 46.9956L374.929 58.8827L386.816 46.9956L374.929 35.1085Z" stroke="black" stroke-width="1.2008" stroke-miterlimit="10" stroke-linecap="round" stroke-linejoin="round"/>
<path d="M253.174 1.48022L246.691 7.96362L253.174 14.447L259.658 7.96362L253.174 1.48022Z" stroke="white" stroke-width="1.2008" stroke-miterlimit="10" stroke-linecap="round" stroke-linejoin="round"/>
<path d="M524.146 60.9404L517.662 67.4238L524.146 73.9072L530.629 67.4238L524.146 60.9404Z" stroke="white" stroke-width="1.2008" stroke-miterlimit="10" stroke-linecap="round" stroke-linejoin="round"/>
<path d="M182.811 81.8152C182.811 79.1622 180.661 77.0122 178.008 77.0122C175.355 77.0122 173.205 79.1622 173.205 81.8152C173.205 84.4682 175.355 86.6182 178.008 86.6182C180.661 86.6182 182.811 84.4682 182.811 81.8152Z" stroke="white" stroke-width="1.2008" stroke-miterlimit="10" stroke-linecap="round" stroke-linejoin="round"/>
<path d="M556.247 342.38C556.247 339.727 554.096 337.577 551.444 337.577C548.792 337.577 546.641 339.727 546.641 342.38C546.641 345.033 548.791 347.183 551.444 347.183C554.097 347.183 556.247 345.033 556.247 342.38Z" stroke="#263238" stroke-width="1.2008" stroke-miterlimit="10" stroke-linecap="round" stroke-linejoin="round"/>
<path d="M439.773 99.8272C439.773 97.1742 437.623 95.0242 434.97 95.0242C432.317 95.0242 430.167 97.1742 430.167 99.8272C430.167 102.48 432.317 104.63 434.97 104.63C437.623 104.63 439.773 102.479 439.773 99.8272Z" stroke="black" stroke-width="1.2008" stroke-miterlimit="10" stroke-linecap="round" stroke-linejoin="round"/>
<path d="M63.935 135.849C63.935 133.196 61.784 131.046 59.132 131.046C56.479 131.046 54.329 133.196 54.329 135.849C54.329 138.502 56.479 140.652 59.132 140.652C61.785 140.652 63.935 138.502 63.935 135.849Z" stroke="white" stroke-width="1.2008" stroke-miterlimit="10" stroke-linecap="round" stroke-linejoin="round"/>
<path d="M540.845 413.912H88.107V132.78C88.107 125.746 93.809 120.044 100.843 120.044H528.11C535.144 120.044 540.846 125.746 540.846 132.78V413.912H540.845Z" fill="white" stroke="#263238" stroke-width="1.2008" stroke-miterlimit="10" stroke-linecap="round" stroke-linejoin="round"/>
<path d="M471.086 399.765H159.941V415.095H471.086V399.765Z" fill="#161815" stroke="#263238" stroke-width="1.2008" stroke-miterlimit="10" stroke-linecap="round" stroke-linejoin="round"/>
<path d="M471.086 407.146H159.941V415.095H471.086V407.146Z" fill="white" stroke="#263238" stroke-width="1.2008" stroke-miterlimit="10" stroke-linecap="round" stroke-linejoin="round"/>
<path d="M51.494 424.18C51.494 424.18 56.604 430.426 71.934 435.535H559.092C559.092 435.535 570.448 432.696 575.558 424.747L51.494 424.18Z" fill="white" stroke="#263238" stroke-width="1.2008" stroke-miterlimit="10" stroke-linecap="round" stroke-linejoin="round"/>
<path d="M572.8 424.932H54.315C52.183 424.932 50.455 423.204 50.455 421.072V416.853C50.455 414.721 52.183 412.993 54.315 412.993H572.8C574.932 412.993 576.66 414.721 576.66 416.853V421.072C576.66 423.204 574.932 424.932 572.8 424.932Z" fill="white" stroke="#263238" stroke-width="1.2008" stroke-miterlimit="10" stroke-linecap="round" stroke-linejoin="round"/>
<path d="M318.353 128.932C318.353 126.737 316.574 124.958 314.379 124.958C312.184 124.958 310.405 126.738 310.405 128.932C310.405 131.127 312.184 132.906 314.379 132.906C316.573 132.906 318.353 131.127 318.353 128.932Z" fill="#161815"/>
<path d="M522.478 143.003H106.473V378.096H522.478V143.003Z" fill="#161815" stroke="white" stroke-width="1.2008" stroke-miterlimit="10" stroke-linejoin="round"/>
<path d="M522.478 143.003H175.611V156.906H522.478V143.003Z" fill="#161815"/>
<path d="M126.69 206.524C131.763 204.423 134.172 198.607 132.07 193.534C129.969 188.461 124.153 186.052 119.08 188.153C114.007 190.255 111.598 196.07 113.699 201.143C115.801 206.216 121.617 208.625 126.69 206.524Z" stroke="white" stroke-width="1.2008" stroke-miterlimit="10" stroke-linejoin="round"/>
<path d="M122.877 235.823C128.368 235.823 132.819 231.372 132.819 225.881C132.819 220.39 128.368 215.939 122.877 215.939C117.386 215.939 112.935 220.39 112.935 225.881C112.935 231.372 117.386 235.823 122.877 235.823Z" stroke="white" stroke-width="1.2008" stroke-miterlimit="10" stroke-linejoin="round"/>
<path d="M126.691 263.613C131.764 261.512 134.173 255.696 132.071 250.623C129.97 245.55 124.154 243.141 119.081 245.243C114.008 247.344 111.599 253.16 113.7 258.233C115.802 263.306 121.618 265.715 126.691 263.613Z" stroke="white" stroke-width="1.2008" stroke-miterlimit="10" stroke-linejoin="round"/>
<path d="M122.877 292.91C128.368 292.91 132.819 288.459 132.819 282.968C132.819 277.477 128.368 273.026 122.877 273.026C117.386 273.026 112.935 277.477 112.935 282.968C112.935 288.459 117.386 292.91 122.877 292.91Z" stroke="white" stroke-width="1.2008" stroke-miterlimit="10" stroke-linejoin="round"/>
<path d="M122.877 321.454C128.368 321.454 132.819 317.003 132.819 311.512C132.819 306.021 128.368 301.57 122.877 301.57C117.386 301.57 112.935 306.021 112.935 311.512C112.935 317.003 117.386 321.454 122.877 321.454Z" stroke="white" stroke-width="1.2008" stroke-miterlimit="10" stroke-linejoin="round"/>
<path d="M132.699 341.652C133.579 336.232 129.898 331.126 124.478 330.246C119.058 329.366 113.951 333.047 113.072 338.467C112.192 343.887 115.873 348.994 121.293 349.873C126.713 350.753 131.819 347.072 132.699 341.652Z" stroke="white" stroke-width="1.2008" stroke-miterlimit="10" stroke-linejoin="round"/>
<path d="M497.152 164.945H155.269V372.127H497.152V164.945Z" stroke="white" stroke-width="1.2008" stroke-miterlimit="10" stroke-linejoin="round"/>
<path d="M155.81 288.73H497.562" stroke="white" stroke-width="1.2008" stroke-miterlimit="10" stroke-linejoin="round"/>
<path d="M352.89 301.278H469.514" stroke="white" stroke-width="1.2008" stroke-miterlimit="10" stroke-linejoin="round"/>
<path d="M352.89 311.612H469.514" stroke="white" stroke-width="1.2008" stroke-miterlimit="10" stroke-linejoin="round"/>
<path d="M352.89 321.946H469.514" stroke="white" stroke-width="1.2008" stroke-miterlimit="10" stroke-linejoin="round"/>
<path d="M352.89 332.279H469.514" stroke="white" stroke-width="1.2008" stroke-miterlimit="10" stroke-linejoin="round"/>
<path d="M352.89 342.613H469.514" stroke="white" stroke-width="1.2008" stroke-miterlimit="10" stroke-linejoin="round"/>
<path d="M352.89 352.947H469.514" stroke="white" stroke-width="1.2008" stroke-miterlimit="10" stroke-linejoin="round"/>
<path d="M320.803 170.076V171.277" stroke="white" stroke-width="1.2008" stroke-linejoin="round"/>
<path d="M320.803 173.653V281.753" stroke="white" stroke-width="1.2008" stroke-linejoin="round" stroke-dasharray="2.38 2.38"/>
<path d="M320.803 282.94V284.141" stroke="#263238" stroke-width="1.2008" stroke-linejoin="round"/>
<path d="M325.934 287.458C325.934 284.624 323.637 282.326 320.803 282.326C317.969 282.326 315.672 284.623 315.672 287.458C315.672 290.292 317.969 292.589 320.803 292.589C323.637 292.59 325.934 290.292 325.934 287.458Z" fill="#6DE754" stroke="white" stroke-width="1.2008" stroke-miterlimit="10" stroke-linejoin="round"/>
<path d="M320.727 284.141V291.02" stroke="white" stroke-width="0.6004" stroke-miterlimit="10" stroke-linejoin="round"/>
<path d="M324.166 287.581H317.287" stroke="white" stroke-width="0.6004" stroke-miterlimit="10" stroke-linejoin="round"/>
<path d="M276.179 231.654H195.359C191.994 231.654 189.265 228.926 189.265 225.56C189.265 222.195 191.993 219.466 195.359 219.466H276.179C279.544 219.466 282.273 222.194 282.273 225.56C282.273 228.926 279.544 231.654 276.179 231.654Z" stroke="white" stroke-width="1.2008" stroke-miterlimit="10" stroke-linejoin="round"/>
<path d="M243.23 299.802H162.377V357.554H243.23V299.802Z" fill="#6DE754" stroke="white" stroke-width="1.2008" stroke-miterlimit="10" stroke-linejoin="round"/>
<path d="M162.377 357.554L243.231 299.802" stroke="white" stroke-width="1.2008" stroke-miterlimit="10" stroke-linejoin="round"/>
<path d="M162.377 299.802L243.231 357.554" stroke="white" stroke-width="1.2008" stroke-miterlimit="10" stroke-linejoin="round"/>
<path d="M335.496 299.802H254.643V357.554H335.496V299.802Z" fill="#6DE754" stroke="white" stroke-width="1.2008" stroke-miterlimit="10" stroke-linejoin="round"/>
<path d="M254.643 357.554L335.496 299.802" stroke="white" stroke-width="1.2008" stroke-miterlimit="10" stroke-linejoin="round"/>
<path d="M254.643 299.802L335.496 357.554" stroke="white" stroke-width="1.2008" stroke-miterlimit="10" stroke-linejoin="round"/>
<path d="M132.819 254.425H154.679" stroke="white" stroke-width="1.2008" stroke-miterlimit="10" stroke-linejoin="round"/>
<path d="M476.627 172.001H328.456V277.837H476.627V172.001Z" fill="#6DE754" stroke="white" stroke-width="1.2008" stroke-miterlimit="10" stroke-linejoin="round"/>
<path d="M328.456 277.837L476.626 172.001" stroke="white" stroke-width="1.2008" stroke-miterlimit="10" stroke-linejoin="round"/>
<path d="M328.456 172.001L476.626 277.837" stroke="white" stroke-width="1.2008" stroke-miterlimit="10" stroke-linejoin="round"/>
<path d="M460.878 226.622C460.878 226.622 462.878 229.394 464.42 232.226C465.961 235.058 466.463 237.094 466.463 237.094C466.463 237.094 467.091 236.544 470.43 233.535C473.77 230.526 474.095 227.681 474.095 227.681L470.904 222.964C470.904 222.964 462.889 222.387 460.878 226.622Z" fill="white" stroke="#263238" stroke-width="1.2008" stroke-miterlimit="10" stroke-linecap="round" stroke-linejoin="round"/>
<path d="M457.638 208.993C457.638 208.993 456.549 212.146 455.563 212.276C454.577 212.406 451.638 211.038 451.963 213.503C452.288 215.968 454.241 217.466 454.241 217.466C454.241 217.466 453.556 225.581 453.965 226.781C454.374 227.981 454.997 228.902 457.955 228.512C460.913 228.122 463.378 227.797 463.378 227.797C463.378 227.797 464.15 227.946 465.415 228.03C466.68 228.114 466.657 228.25 468.83 225.706C471.002 223.162 472.336 225.361 471.783 221.171C471.23 216.981 470.626 214.302 468.296 211.85C465.967 209.4 457.638 208.993 457.638 208.993Z" fill="white" stroke="#263238" stroke-width="1.2008" stroke-miterlimit="10" stroke-linecap="round" stroke-linejoin="round"/>
<path d="M456.49 214.007C456.22 214.927 456.201 215.732 456.446 215.803C456.691 215.875 457.109 215.187 457.379 214.267C457.649 213.347 457.668 212.542 457.423 212.47C457.177 212.398 456.76 213.086 456.49 214.007Z" fill="#263238"/>
<path d="M483.353 195.185L466.324 182.338C466.324 182.338 463.635 181.143 463.635 178.753C463.635 176.363 463.336 175.467 463.635 173.077C463.934 170.687 463.635 169.492 464.83 169.492C466.025 169.492 466.324 172.181 466.324 172.181L467.22 169.193C467.22 169.193 469.311 168.595 469.61 170.089C469.909 171.583 472.299 172.479 471.701 174.57C471.104 176.661 469.012 179.649 469.012 179.649C469.012 179.649 484.846 186.52 487.834 187.417C490.822 188.313 496.302 190.851 495.704 193.838C495.106 196.826 492.16 205.777 492.16 205.777L483.353 195.185Z" fill="white" stroke="#263238" stroke-width="1.2008" stroke-miterlimit="10" stroke-linecap="round" stroke-linejoin="round"/>
<path d="M467.23 235.825C467.23 235.825 463.067 238.688 458.226 242.266C452.217 246.707 452.127 257.011 451.701 258.052C450.995 259.78 470.639 281.146 473.449 284.745C476.259 288.344 476.769 294.153 476.769 294.153L503.379 288.387C503.379 288.387 490.059 241.89 489.376 238.477C488.692 235.064 487.56 230.628 487.56 230.628C487.56 230.628 489.398 220.12 491.781 211.633C494.164 203.145 495.129 197.709 494.947 196.331C494.765 194.954 487.422 194.162 484.377 194.097C481.333 194.032 481.623 194.46 481.623 194.46C481.623 194.46 475.008 209.811 474.639 210.56C474.271 211.311 467.23 235.825 467.23 235.825Z" fill="white" stroke="#263238" stroke-width="1.2008" stroke-miterlimit="10" stroke-linecap="round" stroke-linejoin="round"/>
<path d="M476.769 294.154L475.439 307.459L459.029 350.478L455.481 400.594L462.134 401.038L474.995 352.253L492.292 320.32L500.275 349.591L524.911 398.144L531.209 394.423L515.797 344.713L506.927 293.71L503.38 288.388L476.769 294.154Z" fill="#263238" stroke="#263238" stroke-width="1.2008" stroke-miterlimit="10" stroke-linecap="round" stroke-linejoin="round"/>
<path d="M472.138 227.004C472.138 227.004 470.375 229.572 468.95 231.161C467.525 232.75 465.489 233.252 464.952 234.49C464.415 235.728 461.693 239.732 461.693 239.732C461.693 239.732 468.281 238.488 471.651 235.708C475.021 232.928 476.161 227.407 476.161 227.407C476.161 227.407 473.654 226.104 472.138 227.004Z" fill="white" stroke="#263238" stroke-width="1.2008" stroke-miterlimit="10" stroke-linecap="round" stroke-linejoin="round"/>
<path d="M437.721 281.223C437.721 281.223 411.669 272.978 409.148 271.788C406.627 270.598 404.225 270.868 401.882 271.868C399.54 272.868 397.2 272.104 397.138 273.137C397.076 274.17 398.594 274.781 399.446 274.417C400.298 274.054 402.791 273.997 402.791 273.997L392.783 278.268C392.783 278.268 392.567 280.122 393.905 280.307C395.242 280.491 397.156 281.437 399.132 281.349C401.108 281.261 409.629 275.863 409.629 275.863C409.629 275.863 416.427 279.097 422.875 283.453C429.324 287.81 439.328 292.502 442.652 291.938C445.975 291.374 449.879 285.992 449.387 283.73C447.281 274.048 437.721 281.223 437.721 281.223Z" fill="white" stroke="#263238" stroke-width="1.2008" stroke-miterlimit="10" stroke-linecap="round" stroke-linejoin="round"/>
<path d="M470.44 260.155C470.44 260.155 462.667 270.197 458.453 275.423C454.239 280.649 449.974 289.858 446.44 289.623C442.906 289.389 438.572 282.34 438.789 280.443C439.006 278.546 443.831 274.407 446.595 267.037C448.652 261.553 452.273 252.241 453.991 247.835C454.617 246.23 454.751 244.993 456.122 243.95L458.227 242.266" fill="white"/>
<path d="M470.44 260.155C470.44 260.155 462.667 270.197 458.453 275.423C454.239 280.649 449.974 289.858 446.44 289.623C442.906 289.389 438.572 282.34 438.789 280.443C439.006 278.546 443.831 274.407 446.595 267.037C448.652 261.553 452.273 252.241 453.991 247.835C454.617 246.23 454.751 244.993 456.122 243.95L458.227 242.266" stroke="#263238" stroke-width="1.2008" stroke-miterlimit="10" stroke-linecap="round" stroke-linejoin="round"/>
<path d="M438.788 280.444C438.912 279.355 440.556 277.523 442.455 274.771C443.191 276.056 444.784 279.236 446.906 280.769C448.86 282.181 451.914 283.385 453.195 283.872C449.864 287.961 448.365 289.752 446.439 289.624C442.906 289.389 438.571 282.34 438.788 280.444Z" fill="white" stroke="#263238" stroke-width="1.2008" stroke-miterlimit="10" stroke-linecap="round" stroke-linejoin="round"/>
<path d="M479.407 199.596C480.637 196.747 481.623 194.461 481.623 194.461C481.623 194.461 481.333 194.032 484.377 194.098C487.422 194.164 495.896 195.073 496.078 196.45C496.189 197.289 496.265 201.114 494.213 204.285C491.847 202.359 484.606 198.963 479.407 199.596Z" fill="white" stroke="#263238" stroke-width="1.2008" stroke-miterlimit="10" stroke-linecap="round" stroke-linejoin="round"/>
<path d="M464.76 267.887C464.76 267.887 469.153 264.589 475.728 262.582" stroke="#263238" stroke-width="1.2008" stroke-miterlimit="10" stroke-linecap="round" stroke-linejoin="round"/>
<path d="M463.576 215.985C463.576 215.985 452.76 208.133 456.105 201.171C459.45 194.209 464.399 191.801 468.947 193.96C473.495 196.119 472.062 198.565 472.062 198.565C472.062 198.565 477.057 198.408 478.81 202.189C480.563 205.97 478.177 208.793 478.177 208.793C478.177 208.793 480.883 212.198 480.761 216.979C480.639 221.76 472.267 228.632 470.574 229.106C468.881 229.58 467.537 226.999 467.537 226.999C467.537 226.999 469.975 222.665 468.891 222.055C467.807 221.446 465.11 223.808 465.11 223.808C465.11 223.808 463.761 224.989 463.371 222.031C462.98 219.072 463.576 215.985 463.576 215.985Z" fill="#263238" stroke="#263238" stroke-width="1.2008" stroke-miterlimit="10" stroke-linecap="round" stroke-linejoin="round"/>
<path d="M455.481 400.594C455.481 400.594 450.491 405.473 445.612 406.803C440.733 408.134 438.445 409.464 438.445 409.464L437.341 411.389C436.927 412.112 437.448 413.012 438.281 413.012H462.577C462.577 413.012 463.02 411.238 463.02 407.246C463.02 403.254 462.133 401.037 462.133 401.037L455.481 400.594Z" fill="white" stroke="#263238" stroke-width="1.2008" stroke-miterlimit="10" stroke-linecap="round" stroke-linejoin="round"/>
<path d="M524.911 398.144L524.554 401.846C524.554 401.846 523.018 405.685 520.715 407.221C518.412 408.757 515.596 408.757 515.596 410.292C515.596 411.828 515.596 413.108 515.596 413.108H525.066C525.066 413.108 527.114 413.364 529.929 410.804C532.744 408.244 533.256 405.941 535.304 404.661C537.352 403.381 537.352 401.589 536.328 398.774C535.304 395.958 531.209 394.423 531.209 394.423L524.911 398.144Z" fill="white" stroke="#263238" stroke-width="1.2008" stroke-miterlimit="10" stroke-linecap="round" stroke-linejoin="round"/>
</g>
<defs>
<clipPath id="clip0_169_9">
<rect width="577" height="437" fill="white" transform="translate(0.5)"/>
</clipPath>
</defs>
</svg>
